<svg xmlns="http://www.w3.org/2000/svg" viewBox="0 0 79.05 123.68"><g id="Layer_1" data-name="Layer 1"><path d="M85.45,4.74C84.3,11,83.27,17.51,82.39,23.92c-.42,3.22-.84,6.43-1.19,9.65l-.52,4.83c-.18,1.62-.26,3.23-.43,4.85q-.84,9.68-1.11,19.4c-.26,6.49-.12,13-.16,19.51v.08a2.52,2.52,0,0,1-5,.42,135.17,135.17,0,0,1-2.14-20c-.2-3.35-.11-6.7-.09-10.06,0-1.68.14-3.35.21-5s.18-3.35.33-5c.26-3.35.69-6.67,1.1-10s1-6.63,1.73-9.91A117.46,117.46,0,0,1,80.65,3.26a2.52,2.52,0,0,1,4.82,1.37Z" transform="translate(-26.22 -1.66)"/><path d="M45,6.88a118.17,118.17,0,0,1,9.32,17.91c1.34,3.07,2.5,6.22,3.68,9.35s2.16,6.35,3.08,9.58q.72,2.4,1.33,4.85c.41,1.62.88,3.24,1.22,4.88.69,3.28,1.46,6.55,1.93,9.87a135.82,135.82,0,0,1,1.92,20,2.52,2.52,0,0,1-5,.58v-.07c-1.35-6.41-2.52-12.78-4.08-19.08s-3.13-12.58-5-18.79c-.49-1.54-.89-3.11-1.39-4.66l-1.48-4.62c-1-3.09-2-6.16-3.11-9.22C45.25,21.37,43,15.22,40.56,9.29l0-.1A2.51,2.51,0,0,1,45,6.88Z" transform="translate(-26.22 -1.66)"/><path d="M62.85,125.31A44.77,44.77,0,0,1,26.57,75.89a42,42,0,0,1,5.86-16.35c.35-.64.8-1.22,1.21-1.82l1.28-1.79c.9-1.15,1.9-2.23,2.85-3.34s2.12-2,3.22-3,2.3-1.84,3.52-2.65a42.46,42.46,0,0,1,16.25-6.59A37.46,37.46,0,0,1,93.87,50.3a21.46,21.46,0,0,1,1.55,1.61c.5.56,1,1.09,1.49,1.68l1.34,1.8.67.9.58,1,1.16,1.92c.38.64.66,1.34,1,2s.67,1.33.93,2l.75,2.1.38,1.06.27,1.08.53,2.17c.29,1.46.45,2.94.64,4.41l.09,2.26c0,.38,0,.75,0,1.13l-.07,1.13-.15,2.25L104.68,83c-.07.37-.12.75-.2,1.11l-.3,1.09c-.2.73-.38,1.46-.62,2.17a35.85,35.85,0,0,1-1.74,4.14,32.2,32.2,0,0,1-5,7.4l-1.52,1.63c-.53.52-1.1,1-1.65,1.49l-.83.73-.9.66-1.8,1.3a36.65,36.65,0,0,1-3.88,2.14c-.68.3-1.33.64-2,.9l-2.09.72a17.55,17.55,0,0,1-2.12.59c-.72.15-1.43.36-2.15.47a33.5,33.5,0,0,1-4.38.45,33,33,0,0,1-4.44-.15,31.78,31.78,0,0,1-4.34-.88,27.81,27.81,0,0,1-8-3.6,28.37,28.37,0,0,1-6.51-5.8,27,27,0,0,1-4.32-7.49,25.82,25.82,0,0,1-1.47-8.39,2,2,0,0,1,3.86-.5l0,.1A33.44,33.44,0,0,0,50.76,90a28.8,28.8,0,0,0,4,5.68A23,23,0,0,0,60.09,100a20.74,20.74,0,0,0,6.31,2.47,25,25,0,0,0,3.34.52,25.13,25.13,0,0,0,3.36-.06,26.14,26.14,0,0,0,3.37-.51c.56-.11,1.1-.31,1.64-.45a12.78,12.78,0,0,0,1.62-.53l1.58-.64c.51-.22,1-.51,1.51-.77a27.23,27.23,0,0,0,2.87-1.76L87,97.17l.66-.53.6-.59c.39-.4.81-.77,1.19-1.18l1.08-1.28A24.11,24.11,0,0,0,94,87.88a25.16,25.16,0,0,0,1.13-3.11c.15-.54.25-1.08.37-1.62l.19-.8c0-.27.07-.55.1-.82L96,79.9l0-1.65,0-.82L96,76.61,95.88,75c-.21-1.1-.36-2.22-.62-3.3l-.45-1.61-.22-.81-.31-.78a28.77,28.77,0,0,0-7.27-11,28.27,28.27,0,0,0-24.56-7.31A32.67,32.67,0,0,0,49.88,55,33.44,33.44,0,0,0,35.16,77.21a35.56,35.56,0,0,0,.31,13.89l.17.87.24.86.47,1.71c.35,1.13.78,2.24,1.19,3.36a40.61,40.61,0,0,0,3.32,6.33,41.84,41.84,0,0,0,22.89,17.28h0a2,2,0,0,1-.93,3.79Z" transform="translate(-26.22 -1.66)"/></g></svg>